# xmcd
#
# Track frame offsets:
# 150
# 12492
# 23022
# 38412
# 59425
# 76882
# 90060
# 104592
# 119640
# 133612
# 153700
# 165992
# 186692
# 203330
# 221152
# 241930
# 264500
# 289577
#
# Disc length: 4074 seconds
#
#
# Revision: 0
# Processed by: cddbd v1.5.1PL0 Copyright (c) Steve Scherf et al.
# Submitted via: FreeRIP 2.942 
#
DISCID=f10fe812
DTITLE=Aaron Neville - Very Best of
DYEAR=1900
DGENRE=Folk
TTITLE0=Tell It Like It Is-Track-01
TTITLE1=Over You-Track-02
TTITLE2=The Bells-Track-03
TTITLE3=Don't Take Away My Heaven-Track-04
TTITLE4=Warm Your Heart-Track-05
TTITLE5=You Never Can Tell-Track-06
TTITLE6=CLose Your Eyes-Track-07
TTITLE7=The Grand Tour-Track-08
TTITLE8=Louisiana 1927-Track-09
TTITLE9=Everybody Plays the Fool-Track-10
TTITLE10=Don't Go, Please Stay-Track-11
TTITLE11=Angola Bound-Track-12
TTITLE12=A Change is Gonna Come-Track-13
TTITLE13=Betcha By Golly Wow-Track-14
TTITLE14=Stardust-Track-15
TTITLE15=Use Me-Track-16
TTITLE16=To Make Me Who I Am-Track-17
TTITLE17=Don't Know Much-Track-18
EXTD=
EXTT0=
EXTT1=
EXTT2=
EXTT3=
EXTT4=
EXTT5=
EXTT6=
EXTT7=
EXTT8=
EXTT9=
EXTT10=
EXTT11=
EXTT12=
EXTT13=
EXTT14=
EXTT15=
EXTT16=
EXTT17=
PLAYORDER=
